<svg xmlns="http://www.w3.org/2000/svg" viewBox="0 0 960 680" font-family="Segoe UI, Arial, sans-serif" role="img" aria-labelledby="title desc">
  <title id="title">Kiến trúc tổng quan SoC Simulator</title>
  <desc id="desc">Kiến trúc tổng quan của trình mô phỏng SoC gồm lõi RISC-V, MMU, cache L1I/L1D/L2, TileLink-UH, TileLink-UL, DMA, RAM và các ngoại vi MMIO UART, CAN, LED, bàn phím, chuột.</desc>
  <defs>
    <marker id="aEnd" markerWidth="10" markerHeight="10" refX="9" refY="4.5" orient="auto" markerUnits="userSpaceOnUse">
      <path d="M0,0 L9,4.5 L0,9 Z" fill="#2d3436"/>
    </marker>
    <marker id="aStart" markerWidth="10" markerHeight="10" refX="0" refY="4.5" orient="auto" markerUnits="userSpaceOnUse">
      <path d="M9,0 L0,4.5 L9,9 Z" fill="#2d3436"/>
    </marker>
  </defs>
  <style>
    .layer{fill:none;stroke:#9aa3ad;stroke-width:1.25;stroke-dasharray:5 4}
    .blk{stroke:#2d3436;stroke-width:1.5}
    .compute{fill:#fde8e8}
    .memory{fill:#e8e9fb}
    .bus{fill:#efe9f5}
    .periph{fill:#fdfbe0}
    .bridge{fill:#ffffff}
    .link{stroke:#2d3436;stroke-width:2;fill:none;marker-end:url(#aEnd)}
    .bi{stroke:#2d3436;stroke-width:2;fill:none;marker-start:url(#aStart);marker-end:url(#aEnd)}
    .thin{stroke:#2d3436;stroke-width:1.6;fill:none;marker-start:url(#aStart);marker-end:url(#aEnd)}
    .title{font-size:17px;fill:#2d3436;font-weight:700;text-anchor:middle}
    .layerlbl{font-size:11px;fill:#636e72;font-weight:700;text-anchor:middle}
    .lbl{font-size:12px;fill:#2d3436;font-weight:700;text-anchor:middle}
    .sub{font-size:10.5px;fill:#636e72;text-anchor:middle}
    .tiny{font-size:10.5px;fill:#636e72;text-anchor:middle}
  </style>

  <text x="480" y="34" class="title">Kiến trúc tổng quan SoC Simulator</text>

  <!-- Layer guides -->
  <rect x="40" y="56" width="880" height="92" rx="8" class="layer"/>
  <text x="92" y="79" class="layerlbl">Tính toán</text>
  <rect x="40" y="164" width="880" height="226" rx="8" class="layer"/>
  <text x="110" y="187" class="layerlbl">Bộ nhớ - dịch địa chỉ</text>
  <rect x="40" y="406" width="880" height="104" rx="8" class="layer"/>
  <text x="82" y="429" class="layerlbl">Bus</text>
  <rect x="40" y="526" width="880" height="108" rx="8" class="layer"/>
  <text x="122" y="549" class="layerlbl">Bộ nhớ và ngoại vi</text>

  <!-- Compute layer -->
  <rect x="296" y="78" width="210" height="54" rx="6" class="blk compute"/>
  <text x="401" y="100" class="lbl">RISC-V Core</text>
  <text x="401" y="117" class="sub">RV32IMF</text>
  <rect x="682" y="76" width="190" height="62" rx="6" class="blk compute"/>
  <text x="777" y="99" class="lbl">DMA Controller</text>
  <text x="777" y="116" class="sub">master trên UH/UL</text>

  <!-- Memory / translation layer -->
  <rect x="336" y="174" width="130" height="56" rx="6" class="blk memory"/>
  <text x="401" y="197" class="lbl">MMU</text>
  <text x="401" y="214" class="sub">VA -> PA, TLB</text>

  <rect x="210" y="262" width="152" height="56" rx="6" class="blk memory"/>
  <text x="286" y="285" class="lbl">L1I Cache</text>
  <text x="286" y="302" class="sub">nạp lệnh</text>
  <rect x="440" y="262" width="152" height="56" rx="6" class="blk memory"/>
  <text x="516" y="285" class="lbl">L1D Cache</text>
  <text x="516" y="302" class="sub">dữ liệu</text>
  <rect x="326" y="338" width="178" height="42" rx="6" class="blk memory"/>
  <text x="415" y="363" class="lbl">L2 Cache dùng chung</text>

  <!-- Bus layer -->
  <rect x="248" y="434" width="300" height="54" rx="6" class="blk bus"/>
  <text x="398" y="456" class="lbl">TileLink-UH</text>
  <text x="398" y="473" class="sub">bus hiệu năng cao</text>
  <rect x="594" y="434" width="72" height="54" rx="6" class="blk bridge"/>
  <text x="630" y="455" class="lbl">Bridge</text>
  <text x="630" y="472" class="sub">UH ↔ UL</text>
  <rect x="704" y="434" width="172" height="54" rx="6" class="blk bus"/>
  <text x="790" y="456" class="lbl">TileLink-UL</text>
  <text x="790" y="473" class="sub">bus MMIO nhẹ</text>

  <!-- Memory and peripherals -->
  <rect x="100" y="560" width="196" height="58" rx="6" class="blk memory"/>
  <text x="198" y="584" class="lbl">Main Memory</text>
  <text x="198" y="601" class="sub">RAM</text>

  <rect x="430" y="560" width="78" height="58" rx="6" class="blk periph"/>
  <text x="469" y="594" class="lbl">UART</text>
  <rect x="520" y="560" width="78" height="58" rx="6" class="blk periph"/>
  <text x="559" y="594" class="lbl">CAN</text>
  <rect x="610" y="560" width="78" height="58" rx="6" class="blk periph"/>
  <text x="649" y="585" class="lbl">LED</text>
  <text x="649" y="600" class="sub">Matrix</text>
  <rect x="700" y="560" width="88" height="58" rx="6" class="blk periph"/>
  <text x="744" y="594" class="lbl">Keyboard</text>
  <rect x="800" y="560" width="78" height="58" rx="6" class="blk periph"/>
  <text x="839" y="594" class="lbl">Mouse</text>

  <!-- Links -->
  <path d="M401 132 L401 174" class="link"/>
  <text x="439" y="155" class="tiny">cpu-to-mmu</text>

  <path d="M372 230 C338 238 300 248 286 262" class="bi"/>
  <text x="308" y="236" class="tiny">mmu-to-l1i</text>
  <path d="M430 230 C462 238 502 248 516 262" class="bi"/>
  <text x="510" y="236" class="tiny">mmu-to-l1d</text>

  <path d="M302 318 C322 334 350 344 374 338" class="bi"/>
  <path d="M500 318 C480 334 452 344 428 338" class="bi"/>

  <path d="M415 380 L415 434" class="bi"/>
  <text x="452" y="412" class="tiny">l2-to-uh</text>
  <path d="M296 589 L248 589 L248 488" class="bi"/>
  <text x="210" y="524" class="tiny">uh-to-main-memory</text>

  <path d="M548 461 L594 461" class="bi"/>
  <path d="M666 461 L704 461" class="bi"/>

  <path d="M777 138 C777 236 688 312 532 434" class="link"/>
  <text x="712" y="270" class="tiny">DMA -> UH</text>
  <path d="M790 138 L790 434" class="link"/>
  <text x="833" y="292" class="tiny">DMA -> UL</text>
  <path d="M682 112 C618 126 574 230 548 434" class="bi"/>
  <text x="610" y="228" class="tiny">DMA regs trên UH</text>

  <path d="M790 488 L790 530 L469 530 L469 560" class="thin"/>
  <path d="M790 488 L790 530 L559 530 L559 560" class="thin"/>
  <path d="M790 488 L790 530 L649 530 L649 560" class="thin"/>
  <path d="M790 488 L790 530 L744 530 L744 560" class="thin"/>
  <path d="M790 488 L839 530 L839 560" class="thin"/>

  <!-- Legend -->
  <rect x="108" y="646" width="16" height="10" rx="2" class="blk compute"/>
  <text x="188" y="655" class="tiny">compute/master</text>
  <rect x="286" y="646" width="16" height="10" rx="2" class="blk memory"/>
  <text x="358" y="655" class="tiny">memory/cache</text>
  <rect x="444" y="646" width="16" height="10" rx="2" class="blk bus"/>
  <text x="518" y="655" class="tiny">TileLink bus</text>
  <rect x="604" y="646" width="16" height="10" rx="2" class="blk periph"/>
  <text x="680" y="655" class="tiny">MMIO ngoại vi</text>
</svg>
